<svg xmlns="http://www.w3.org/2000/svg" version="1.1" xmlns:xlink="http://www.w3.org/1999/xlink" xmlns:svgjs="http://svgjs.com/svgjs" width="1000" height="1000"><rect width="1000" height="1000" rx="500" ry="500" fill="#908564"></rect><g transform="matrix(3.515625,0,0,3.515625,49.99999040365219,52.4323982745409)"><svg xmlns="http://www.w3.org/2000/svg" version="1.1" xmlns:xlink="http://www.w3.org/1999/xlink" xmlns:svgjs="http://svgjs.com/svgjs" width="256" height="256"><svg version="1.2" xmlns="http://www.w3.org/2000/svg" viewBox="0 0 278 278" width="256" height="256">
	<title>22073257_6536991-svg</title>
	<style>
		.s0 { fill: #1b1913 }
		.s1 { fill: #e6e3db }
	</style>
	<g id="OBJECTS">
		<g id="Layer">
			<g id="Layer">
				<g id="Layer">
					<path id="Layer" class="s0" d="m232.1 191.6v-66.3-0.1l-55.5 32.1 36-7.5v30.6l-11.5 6.7v22.4zm-155.2-4.5l-11.6-6.7v-85l11.6-6.7v-22.4l-31 17.8v107.5l31 17.9 6.5 3.8 55.6 32.1 39-22.5c5.2-3.1 8.5-8.7 8.5-14.7v-21.1c-2.3 7.3-8.7 13.3-13.3 16.1l-34.2 19.7-55.6-32zm117.7-124.7l-55.6-32-39 22.5c-5.3 3-8.5 8.6-8.5 14.7v21c2.4-7.4 9-13.5 13.6-16.2l33.9-19.6 55.6 32.1 6.5 3.7 11.5 6.7v4.4c0 4.6-2.2 8-4.4 10.6l4.4-2.5 19.5-11.2v-12.5l-31-17.9z"></path>
					<path id="Layer" class="s1" d="m197.8 60.6v7.5zm-114.4 152.7l-6.5-3.8zm0-128.3v-22.5-14l55.6-32.1 55.6 32.1v6.9l5 2.9 4 2.3 1.8 1c-2.4-3.8-4.3-6.1-4.3-12.4v-4.5l-62.1-35.8-62.1 35.8v17.6 4 22.4 1.8 96.6l6.5 3.8v-96.3-7.8zm111.1 128.3v1.8 12.3l-55.5 32-55.6-32.1v-6.9l-6.5-3.7-4.3-2.5c2.4 3.8 4.3 6.1 4.3 12.5v4.4l62.1 35.9 62.1-35.9v-1.9-19.6-22.5-19.6l-42 7.8h35.4v6 9.6z"></path>
				</g>
			</g>
		</g>
	</g>
</svg></svg></g></svg>